PathFileType	4	(X/Y/Z)	1_2_rein_113_p1_0-478_filt_butterworth.trc
DataRate	CameraRate	NumFrames	NumMarkers	Units	OrigDataRate	OrigDataStartFrame	OrigNumFrames
60.0	60.0	6	27	m	60.0	119	478
Frame#	Time	RHip			RKnee			RAnkle			RBigToe			RSmallToe			RHeel			LHip			LKnee			LAnkle			LBigToe			LSmallToe			LHeel			Neck			Head			Nose			RShoulder			RElbow			RWrist			RThumb			RIndex			RPinky			LShoulder			LElbow			LWrist			LThumb			LIndex			LPinky			
		X1	Y1	Z1	X2	Y2	Z2	X3	Y3	Z3	X4	Y4	Z4	X5	Y5	Z5	X6	Y6	Z6	X7	Y7	Z7	X8	Y8	Z8	X9	Y9	Z9	X10	Y10	Z10	X11	Y11	Z11	X12	Y12	Z12	X13	Y13	Z13	X14	Y14	Z14	X15	Y15	Z15	X16	Y16	Z16	X17	Y17	Z17	X18	Y18	Z18	X19	Y19	Z19	X20	Y20	Z20	X21	Y21	Z21	X22	Y22	Z22	X23	Y23	Z23	X24	Y24	Z24	X25	Y25	Z25	X26	Y26	Z26	X27	Y27	Z27	
119	1.9833333333333332	0.3791632290313295	0.20431510431842723	1.0882404770751117	0.36860192793289487	0.2862228684323296	1.5177431877498104	0.3444007984327322	0.4101115697117915	1.9668299456846992	0.33331465212518663	0.1778448868590964	1.9882512415350737	0.3933948164062355	0.22437824555656383	1.9993178836549976	0.33371248050469127	0.46867197276937045	2.026803627921702	0.16905350732437646	0.2195119381891799	1.0773154665221714	0.17908770678651162	0.29316702457004623	1.502931317748816	0.1955223589762888	0.37739863524859096	1.9367541984814935	0.17323081422596492	0.17683590512441455	1.9872969016239308	0.12571903586279407	0.22374703362582782	1.9760942569212705	0.2138305861911509	0.4566980009381851	2.002643602784155	0.26077280531565233	0.16896101844335967	0.5246459100302245	0.20313624934087277	-0.026347828632181342	0.2802494755750709	0.21218018882058753	0.004929648918813019	0.46380032105614843	0.4476137689440414	0.1474030130628345	0.5282216734311762	0.5496437909481428	0.12471494318470405	0.7827169993401215	0.3550021323385158	0.00244806363820079	0.7389892979764825	0.234591236035873	-0.011750863790937325	0.758869142543858	0.21863718798920848	-0.02819797621708096	0.7732727967711039	0.25336562074744756	0.0059700184247153615	0.8060978742446269	0.09688597864303003	0.23185634236507932	0.5544255194056369	0.047072667032003634	0.3349857442238144	0.7846065359188917	0.11460869381564044	0.13203579411447774	0.9350157390893286	0.1767413739215878	0.05502458122161833	0.9706745998232993	0.15232887924088906	0.03699363542969442	1.0117543610510171	0.13324847657943645	0.09569175789382278	1.033007445214675
120	2.0	0.3799499611524685	0.2020839593912533	1.0878739094270082	0.37050085482314243	0.28624504400635953	1.5184025009680573	0.3444030577441151	0.41014107687447326	1.9668635384861934	0.3331102517174432	0.17806390694910842	1.9876346348950524	0.39310567060207124	0.22456471187691346	1.9991469343196464	0.33373655887352827	0.4687890088033009	2.0268364591556742	0.169404550160317	0.22034640075250617	1.0757367710848267	0.1790940544524064	0.29308889356240064	1.5028872537638656	0.19552241364036366	0.37745586790644214	1.9368016826373466	0.17514009365939295	0.17427718685558427	1.9848984752021204	0.1256419831619386	0.2234523777621028	1.9759326879844936	0.21388394262632088	0.45668527363410816	2.0027235912285515	0.2608235859594113	0.1690738853270489	0.5252693716048384	0.20187795766378633	-0.02956272611592199	0.28152818436110594	0.20980160724565086	0.006197195191160074	0.4643900996445403	0.4477968106169047	0.14661574960051976	0.5292162309875649	0.5433596995623946	0.11855827600850127	0.7835110659842061	0.3507009784379804	0.0006295740323055815	0.7396377463331586	0.23149831331411183	-0.023384409313847967	0.7579473217361142	0.21606876983075501	-0.03764341587574832	0.7728218863687292	0.25059664253505404	0.0024508943061028387	0.8047454446359893	0.09689371202204743	0.23186308310919967	0.5543959292210143	0.05033071239197186	0.33629669870097795	0.7852783936168208	0.11589685922228427	0.13664510806780736	0.9355128567432638	0.17578994246329896	0.05337671420705553	0.9682969824453743	0.1532392560848013	0.034530884101496136	1.0099230519201194	0.13428840160200667	0.09400099030602624	1.0313039974391651
121	2.0166666666666666	0.38088207544386654	0.19946585396232458	1.0868430838216705	0.37235545999077146	0.2862595761132704	1.5187329520867647	0.34440063515788877	0.41013381455414605	1.96688805394424	0.33296686529673863	0.1781870727262947	1.987323732116216	0.3928184428690513	0.2247870724334192	1.9997058353954005	0.3337543848380354	0.4688413321556316	2.0268077230612223	0.16930552969389143	0.22050349806692823	1.0746350757891738	0.17913544582199825	0.29283589330686083	1.5028531756861967	0.19554161766853959	0.37751238099674816	1.936893376641656	0.17712747441304103	0.17270826147586876	1.9840265231606797	0.12568738025379658	0.2233403245314693	1.9758768467416965	0.2139069587030466	0.4567024642397976	2.0027369941289637	0.26089211596502954	0.169401498470232	0.5267615566952384	0.20048461305923593	-0.03426158176027581	0.2835976027677322	0.2080983396157467	0.006583092524471305	0.4653003519908328	0.4479442791170351	0.1459548453983791	0.5299425734765296	0.5363759037905126	0.11453258113338631	0.7855690693968053	0.34504633694182224	-0.0021695622163650946	0.7416860273595395	0.22658622878485288	-0.03806811730731176	0.756425001658532	0.2129421610066081	-0.04699167512770752	0.7718123695175658	0.2441836761514783	-0.007424530595404832	0.8037831818284401	0.09689279322361781	0.2318450556797057	0.5543793610385626	0.05381415812290439	0.3372401434847777	0.7859434677966333	0.11742782226991359	0.14228034724422234	0.936010659359298	0.17325081147446517	0.04980018016058574	0.9670245009341718	0.15344714282449406	0.03356376431251524	1.0092827352059133	0.13472556717808143	0.09279152929229961	1.0304062051153773
122	2.033333333333333	0.38144791000339034	0.19812409217678423	1.0856361697876298	0.3732978098825082	0.28638531957015384	1.5187849755270588	0.3443934695727307	0.41007539297268886	1.9668907318404427	0.33288995691978385	0.1783311639139396	1.987222260627599	0.3925621629629006	0.2247345172891101	2.0011997819342975	0.33377173667572185	0.46884746083132667	2.0267168864309086	0.16907935848412017	0.2202452708521589	1.0740989041659286	0.17922982030870602	0.29235467207688887	1.5028318923165531	0.19558024786513115	0.37756684724187933	1.9370206512922588	0.1785897883164995	0.173212915889342	1.9850547431953922	0.12619323087237705	0.22368766724002692	1.976062056542916	0.21388383560399354	0.45677470633880735	2.0026902155826374	0.26098726402592654	0.1698572446575167	0.5289379384101315	0.1991722331998911	-0.039428482511952904	0.28569248380680423	0.20730962801706526	0.005619717055889794	0.4662548223800328	0.44803751239517087	0.14563605253174758	0.5302967059369339	0.5299596196179005	0.11215826793799809	0.7884476284987644	0.33766474195187146	-0.008020178606250246	0.7449029536090784	0.22044636491594702	-0.05125975523447101	0.7547901239618325	0.20904477280940081	-0.05367067994721772	0.7707346712286143	0.2347206323009711	-0.02397777181732993	0.8038010697405915	0.09688832205647502	0.23178928722182737	0.5543746478278262	0.05693729131791223	0.33742618236029787	0.7864961508058748	0.11910819065673045	0.14850434933955384	0.9364904418416702	0.16979494250763288	0.045141020245732154	0.9673540866214417	0.15333008836315576	0.033466323987968366	1.0095368526912325	0.13464819150617266	0.09265199768129045	1.0303922912414296
123	2.05	0.38170772711084133	0.19792513443429574	1.0852985017959205	0.3734839165360288	0.2867256991553993	1.5184245184961087	0.3443869626474429	0.409991297104052	1.9668691657306927	0.3328963514151832	0.17855899575165304	1.9872618807503686	0.3923380352348451	0.22426835382604943	2.0027723879936103	0.3337964089752832	0.4688661775041549	2.0266120471131552	0.1690013112889362	0.2202903710571844	1.0741571479108878	0.17934952448047595	0.2918768360317679	1.5028268729722023	0.19560182686139124	0.3775367819685599	1.9371037735336871	0.17923875036666026	0.17448418899602353	1.986667246516945	0.12741427983918188	0.22457628475470587	1.9765166115480168	0.213865774091771	0.45686750893693384	2.002622770737805	0.26108963436010885	0.1702859229609209	0.5309520824559689	0.19802126249198185	-0.04392042180380602	0.2872084676388552	0.2076924984492649	0.0027039889428889935	0.4669258459906412	0.4481269168024552	0.1458207899275792	0.5307152152502603	0.52409900155824	0.11040868560885783	0.7914531145027272	0.32818987377704545	-0.017376602490488488	0.7484078025720541	0.21443006760561312	-0.059863034838471926	0.7536277417545154	0.20385813090407914	-0.056647632276341016	0.7704195205941804	0.22525402518742862	-0.04308361339838703	0.8058558512913893	0.0968887245487156	0.23171907603188352	0.5543824370663257	0.05887916457606538	0.3370497348467598	0.7868410431513934	0.121035035270058	0.15543439620017974	0.9373382702000475	0.16748266723505237	0.04176709276926273	0.9693912066311557	0.15364640907342184	0.03375067714762087	1.0101222304018087	0.13423950329104545	0.09375972128678346	1.031182210621044
124	2.066666666666667	0.3819231673103363	0.19816002510537348	1.0864022250251226	0.373414465267157	0.287195810334168	1.5175569504635606	0.3443848174782894	0.40990904789212057	1.96683627743913	0.33289561050775257	0.1785461625821242	1.9872818343979886	0.3921719013929937	0.22357406065960556	2.003388363973002	0.33382051460445417	0.4688863515057875	2.026549102032662	0.16936930232051906	0.22180419568425752	1.0750755902856035	0.179438418444428	0.29173127851965486	1.5029065246402498	0.1955772426376871	0.37738404652816576	1.9370805487050125	0.17912077786139483	0.17515548825834837	1.9871684145488813	0.1290119076114268	0.22566834149087486	1.9770596746379363	0.21387301522777086	0.4569228597662218	2.002576453197984	0.261198152057875	0.17061034327927493	0.532179680184094	0.19693336094192979	-0.0475102749537272	0.28851530281518745	0.20894917421967757	-0.0015640943928138555	0.4676390943604135	0.44826651824480146	0.1466676309668994	0.5316177308771538	0.5175861694182158	0.1092144331523831	0.7938505157765703	0.31734844918884103	-0.028427389666965626	0.7519156279916115	0.2093218715561037	-0.06388931162541556	0.7538457205291493	0.19656139348171164	-0.058815123431796505	0.7719413273977117	0.21880356640125728	-0.05892805781569923	0.8111486749542965	0.09689681334887809	0.23165494895602703	0.5544082218880009	0.05957599694542688	0.3368071208931107	0.7871078078228729	0.12315579160977523	0.16294203209354374	0.9385707805812237	0.16800490171080185	0.04071761053761932	0.9712806446653748	0.1552634808364896	0.03440354481197942	1.0102078727121144	0.13385782076761768	0.0957490934792756	1.0324454739740687
